<svg xmlns="http://www.w3.org/2000/svg" viewBox="0 0 41 41" shape-rendering="geometricPrecision"><title>https://yakkomom.onrender.com/web</title><rect width="41" height="41" fill="#FFFFFF"/><g fill="#1C2A21" stroke="#1C2A21" stroke-width="0.14" stroke-linejoin="round"><path d="M12.5,4H13V5H12V4.5A0.5,0.5 0 0 1 12.5,4Z"/><path d="M13,4H14V5H13V4Z"/><path d="M14,4H14.5A0.5,0.5 0 0 1 15,4.5V4.5A0.5,0.5 0 0 1 14.5,5H14V4Z"/><path d="M16.5,4H16.5A0.5,0.5 0 0 1 17,4.5V4.5A0.5,0.5 0 0 1 16.5,5H16.5A0.5,0.5 0 0 1 16,4.5V4.5A0.5,0.5 0 0 1 16.5,4Z"/><path d="M18.5,4H18.5A0.5,0.5 0 0 1 19,4.5V4.5A0.5,0.5 0 0 1 18.5,5H18.5A0.5,0.5 0 0 1 18,4.5V4.5A0.5,0.5 0 0 1 18.5,4Z"/><path d="M22.5,4H23V5H22.5A0.5,0.5 0 0 1 22,4.5V4.5A0.5,0.5 0 0 1 22.5,4Z"/><path d="M23,4H23.5A0.5,0.5 0 0 1 24,4.5V5H23V4Z"/><path d="M27.5,4H28V5H27.5A0.5,0.5 0 0 1 27,4.5V4.5A0.5,0.5 0 0 1 27.5,4Z"/><path d="M28,4H28.5A0.5,0.5 0 0 1 29,4.5V5H28V4Z"/><path d="M12,5H13V6H12V5Z"/><path d="M13,5H14V5.5A0.5,0.5 0 0 1 13.5,6H13V5Z"/><path d="M15.5,5H15.5A0.5,0.5 0 0 1 16,5.5V5.5A0.5,0.5 0 0 1 15.5,6H15.5A0.5,0.5 0 0 1 15,5.5V5.5A0.5,0.5 0 0 1 15.5,5Z"/><path d="M17.5,5H17.5A0.5,0.5 0 0 1 18,5.5V5.5A0.5,0.5 0 0 1 17.5,6H17.5A0.5,0.5 0 0 1 17,5.5V5.5A0.5,0.5 0 0 1 17.5,5Z"/><path d="M19.5,5H20V6H19.5A0.5,0.5 0 0 1 19,5.5V5.5A0.5,0.5 0 0 1 19.5,5Z"/><path d="M20,5H20.5A0.5,0.5 0 0 1 21,5.5V5.5A0.5,0.5 0 0 1 20.5,6H20V5Z"/><path d="M23,5H24V5.5A0.5,0.5 0 0 1 23.5,6H23.5A0.5,0.5 0 0 1 23,5.5V5Z"/><path d="M26.5,5H26.5A0.5,0.5 0 0 1 27,5.5V6H26V5.5A0.5,0.5 0 0 1 26.5,5Z"/><path d="M28,5H29V6H28V5Z"/><path d="M12,6H13V6.5A0.5,0.5 0 0 1 12.5,7H12.5A0.5,0.5 0 0 1 12,6.5V6Z"/><path d="M16.5,6H16.5A0.5,0.5 0 0 1 17,6.5V6.5A0.5,0.5 0 0 1 16.5,7H16.5A0.5,0.5 0 0 1 16,6.5V6.5A0.5,0.5 0 0 1 16.5,6Z"/><path d="M21.5,6H22V7H21.5A0.5,0.5 0 0 1 21,6.5V6.5A0.5,0.5 0 0 1 21.5,6Z"/><path d="M22,6H22.5A0.5,0.5 0 0 1 23,6.5V7H22V6Z"/><path d="M24.5,6H25V7H24.5A0.5,0.5 0 0 1 24,6.5V6.5A0.5,0.5 0 0 1 24.5,6Z"/><path d="M25,6H26V7H25V6Z"/><path d="M26,6H27V7H26V6Z"/><path d="M27,6H28V7H27V6Z"/><path d="M28,6H29V7H28V6Z"/><path d="M13.5,7H14V8H13V7.5A0.5,0.5 0 0 1 13.5,7Z"/><path d="M14,7H14.5A0.5,0.5 0 0 1 15,7.5V7.5A0.5,0.5 0 0 1 14.5,8H14V7Z"/><path d="M20.5,7H20.5A0.5,0.5 0 0 1 21,7.5V8H20V7.5A0.5,0.5 0 0 1 20.5,7Z"/><path d="M22,7H23V8H22.5A0.5,0.5 0 0 1 22,7.5V7Z"/><path d="M23,7H23.5A0.5,0.5 0 0 1 24,7.5V8H23V7Z"/><path d="M26,7H27V8H26.5A0.5,0.5 0 0 1 26,7.5V7Z"/><path d="M27,7H28V8H27V7Z"/><path d="M28,7H29V7.5A0.5,0.5 0 0 1 28.5,8H28V7Z"/><path d="M13,8H14V8.5A0.5,0.5 0 0 1 13.5,9H13.5A0.5,0.5 0 0 1 13,8.5V8Z"/><path d="M17.5,8H18V9H17.5A0.5,0.5 0 0 1 17,8.5V8.5A0.5,0.5 0 0 1 17.5,8Z"/><path d="M18,8H18.5A0.5,0.5 0 0 1 19,8.5V8.5A0.5,0.5 0 0 1 18.5,9H18V8Z"/><path d="M20,8H21V9H20V8Z"/><path d="M23,8H24V9H23.5A0.5,0.5 0 0 1 23,8.5V8Z"/><path d="M24,8H25V9H24V8Z"/><path d="M25,8H25.5A0.5,0.5 0 0 1 26,8.5V9H25V8Z"/><path d="M27,8H28V8.5A0.5,0.5 0 0 1 27.5,9H27.5A0.5,0.5 0 0 1 27,8.5V8Z"/><path d="M12.5,9H12.5A0.5,0.5 0 0 1 13,9.5V10H12V9.5A0.5,0.5 0 0 1 12.5,9Z"/><path d="M15.5,9H16V10H15.5A0.5,0.5 0 0 1 15,9.5V9.5A0.5,0.5 0 0 1 15.5,9Z"/><path d="M16,9H16.5A0.5,0.5 0 0 1 17,9.5V10H16V9Z"/><path d="M20,9H21V10H20V9Z"/><path d="M22.5,9H22.5A0.5,0.5 0 0 1 23,9.5V10H22V9.5A0.5,0.5 0 0 1 22.5,9Z"/><path d="M25,9H26V10H25.5A0.5,0.5 0 0 1 25,9.5V9Z"/><path d="M26,9H26.5A0.5,0.5 0 0 1 27,9.5V10H26V9Z"/><path d="M12,10H13V11H12V10Z"/><path d="M14.5,10H14.5A0.5,0.5 0 0 1 15,10.5V11H14V10.5A0.5,0.5 0 0 1 14.5,10Z"/><path d="M16,10H17V11H16V10Z"/><path d="M18.5,10H18.5A0.5,0.5 0 0 1 19,10.5V10.5A0.5,0.5 0 0 1 18.5,11H18.5A0.5,0.5 0 0 1 18,10.5V10.5A0.5,0.5 0 0 1 18.5,10Z"/><path d="M20,10H21V11H20V10Z"/><path d="M22,10H23V11H22V10Z"/><path d="M24.5,10H24.5A0.5,0.5 0 0 1 25,10.5V10.5A0.5,0.5 0 0 1 24.5,11H24.5A0.5,0.5 0 0 1 24,10.5V10.5A0.5,0.5 0 0 1 24.5,10Z"/><path d="M26,10H27V11H26V10Z"/><path d="M28.5,10H28.5A0.5,0.5 0 0 1 29,10.5V10.5A0.5,0.5 0 0 1 28.5,11H28.5A0.5,0.5 0 0 1 28,10.5V10.5A0.5,0.5 0 0 1 28.5,10Z"/><path d="M12,11H13V12H12V11Z"/><path d="M14,11H15V12H14V11Z"/><path d="M15,11H16V12H15V11Z"/><path d="M16,11H17V12H16V11Z"/><path d="M17,11H17.5A0.5,0.5 0 0 1 18,11.5V12H17V11Z"/><path d="M19.5,11H20V12H19.5A0.5,0.5 0 0 1 19,11.5V11.5A0.5,0.5 0 0 1 19.5,11Z"/><path d="M20,11H21V12H20V11Z"/><path d="M21,11H22V12H21V11Z"/><path d="M22,11H23V12H22V11Z"/><path d="M23,11H23.5A0.5,0.5 0 0 1 24,11.5V12H23V11Z"/><path d="M25.5,11H26V12H25.5A0.5,0.5 0 0 1 25,11.5V11.5A0.5,0.5 0 0 1 25.5,11Z"/><path d="M26,11H27V12H26V11Z"/><path d="M6.5,12H7V13H6.5A0.5,0.5 0 0 1 6,12.5V12.5A0.5,0.5 0 0 1 6.5,12Z"/><path d="M7,12H8V13H7V12Z"/><path d="M8,12H8.5A0.5,0.5 0 0 1 9,12.5V12.5A0.5,0.5 0 0 1 8.5,13H8V12Z"/><path d="M10.5,12H10.5A0.5,0.5 0 0 1 11,12.5V12.5A0.5,0.5 0 0 1 10.5,13H10.5A0.5,0.5 0 0 1 10,12.5V12.5A0.5,0.5 0 0 1 10.5,12Z"/><path d="M12,12H13V13H12V12Z"/><path d="M14,12H15V12.5A0.5,0.5 0 0 1 14.5,13H14.5A0.5,0.5 0 0 1 14,12.5V12Z"/><path d="M16,12H17V13H16.5A0.5,0.5 0 0 1 16,12.5V12Z"/><path d="M17,12H18V13H17V12Z"/><path d="M18,12H18.5A0.5,0.5 0 0 1 19,12.5V13H18V12Z"/><path d="M21,12H22V13H21.5A0.5,0.5 0 0 1 21,12.5V12Z"/><path d="M22,12H23V13H22V12Z"/><path d="M23,12H24V13H23V12Z"/><path d="M26,12H27V13H26V12Z"/><path d="M28.5,12H29V13H28.5A0.5,0.5 0 0 1 28,12.5V12.5A0.5,0.5 0 0 1 28.5,12Z"/><path d="M29,12H30V13H29V12Z"/><path d="M30,12H31V13H30V12Z"/><path d="M31,12H31.5A0.5,0.5 0 0 1 32,12.5V12.5A0.5,0.5 0 0 1 31.5,13H31V12Z"/><path d="M34.5,12H35V13H34.5A0.5,0.5 0 0 1 34,12.5V12.5A0.5,0.5 0 0 1 34.5,12Z"/><path d="M35,12H36V13H35V12Z"/><path d="M36,12H36.5A0.5,0.5 0 0 1 37,12.5V13H36V12Z"/><path d="M4.5,13H5V14H4.5A0.5,0.5 0 0 1 4,13.5V13.5A0.5,0.5 0 0 1 4.5,13Z"/><path d="M5,13H5.5A0.5,0.5 0 0 1 6,13.5V14H5V13Z"/><path d="M7,13H8V14H7V13Z"/><path d="M11.5,13H12V14H11.5A0.5,0.5 0 0 1 11,13.5V13.5A0.5,0.5 0 0 1 11.5,13Z"/><path d="M12,13H13V13.5A0.5,0.5 0 0 1 12.5,14H12V13Z"/><path d="M15.5,13H15.5A0.5,0.5 0 0 1 16,13.5V14H15V13.5A0.5,0.5 0 0 1 15.5,13Z"/><path d="M17,13H18V14H17V13Z"/><path d="M18,13H19V13.5A0.5,0.5 0 0 1 18.5,14H18V13Z"/><path d="M23,13H24V14H23V13Z"/><path d="M24,13H25V14H24V13Z"/><path d="M25,13H26V14H25V13Z"/><path d="M26,13H27V14H26V13Z"/><path d="M27,13H27.5A0.5,0.5 0 0 1 28,13.5V13.5A0.5,0.5 0 0 1 27.5,14H27V13Z"/><path d="M29,13H30V14H29.5A0.5,0.5 0 0 1 29,13.5V13Z"/><path d="M30,13H31V14H30V13Z"/><path d="M33.5,13H33.5A0.5,0.5 0 0 1 34,13.5V14H33V13.5A0.5,0.5 0 0 1 33.5,13Z"/><path d="M36,13H37V13.5A0.5,0.5 0 0 1 36.5,14H36.5A0.5,0.5 0 0 1 36,13.5V13Z"/><path d="M5,14H6V15H5.5A0.5,0.5 0 0 1 5,14.5V14Z"/><path d="M6,14H7V15H6V14Z"/><path d="M7,14H8V15H7V14Z"/><path d="M8,14H9V15H8V14Z"/><path d="M9,14H10V15H9V14Z"/><path d="M10,14H10.5A0.5,0.5 0 0 1 11,14.5V14.5A0.5,0.5 0 0 1 10.5,15H10V14Z"/><path d="M14.5,14H15V15H14V14.5A0.5,0.5 0 0 1 14.5,14Z"/><path d="M15,14H16V14.5A0.5,0.5 0 0 1 15.5,15H15V14Z"/><path d="M17,14H18V14.5A0.5,0.5 0 0 1 17.5,15H17.5A0.5,0.5 0 0 1 17,14.5V14Z"/><path d="M19.5,14H19.5A0.5,0.5 0 0 1 20,14.5V15H19V14.5A0.5,0.5 0 0 1 19.5,14Z"/><path d="M23,14H24V15H23V14Z"/><path d="M24,14H25V15H24V14Z"/><path d="M28.5,14H28.5A0.5,0.5 0 0 1 29,14.5V14.5A0.5,0.5 0 0 1 28.5,15H28.5A0.5,0.5 0 0 1 28,14.5V14.5A0.5,0.5 0 0 1 28.5,14Z"/><path d="M30,14H31V15H30V14Z"/><path d="M31,14H31.5A0.5,0.5 0 0 1 32,14.5V14.5A0.5,0.5 0 0 1 31.5,15H31V14Z"/><path d="M33,14H34V15H33V14Z"/><path d="M35.5,14H35.5A0.5,0.5 0 0 1 36,14.5V15H35V14.5A0.5,0.5 0 0 1 35.5,14Z"/><path d="M4.5,15H4.5A0.5,0.5 0 0 1 5,15.5V16H4V15.5A0.5,0.5 0 0 1 4.5,15Z"/><path d="M11.5,15H11.5A0.5,0.5 0 0 1 12,15.5V15.5A0.5,0.5 0 0 1 11.5,16H11.5A0.5,0.5 0 0 1 11,15.5V15.5A0.5,0.5 0 0 1 11.5,15Z"/><path d="M14,15H15V16H14V15Z"/><path d="M16.5,15H16.5A0.5,0.5 0 0 1 17,15.5V15.5A0.5,0.5 0 0 1 16.5,16H16.5A0.5,0.5 0 0 1 16,15.5V15.5A0.5,0.5 0 0 1 16.5,15Z"/><path d="M18.5,15H19V16H18V15.5A0.5,0.5 0 0 1 18.5,15Z"/><path d="M19,15H20V16H19V15Z"/><path d="M23,15H24V16H23.5A0.5,0.5 0 0 1 23,15.5V15Z"/><path d="M24,15H25V16H24V15Z"/><path d="M25,15H25.5A0.5,0.5 0 0 1 26,15.5V16H25V15Z"/><path d="M29.5,15H30V16H29V15.5A0.5,0.5 0 0 1 29.5,15Z"/><path d="M30,15H31V15.5A0.5,0.5 0 0 1 30.5,16H30V15Z"/><path d="M33,15H34V16H33.5A0.5,0.5 0 0 1 33,15.5V15Z"/><path d="M34,15H35V16H34V15Z"/><path d="M35,15H36V15.5A0.5,0.5 0 0 1 35.5,16H35V15Z"/><path d="M4,16H5V17H4.5A0.5,0.5 0 0 1 4,16.5V16Z"/><path d="M5,16H6V17H5V16Z"/><path d="M6,16H7V17H6V16Z"/><path d="M7,16H7.5A0.5,0.5 0 0 1 8,16.5V17H7V16Z"/><path d="M10.5,16H10.5A0.5,0.5 0 0 1 11,16.5V16.5A0.5,0.5 0 0 1 10.5,17H10.5A0.5,0.5 0 0 1 10,16.5V16.5A0.5,0.5 0 0 1 10.5,16Z"/><path d="M14,16H15V17H14V16Z"/><path d="M18,16H19V17H18.5A0.5,0.5 0 0 1 18,16.5V16Z"/><path d="M19,16H20V17H19V16Z"/><path d="M20,16H21V17H20V16Z"/><path d="M21,16H21.5A0.5,0.5 0 0 1 22,16.5V16.5A0.5,0.5 0 0 1 21.5,17H21V16Z"/><path d="M25,16H26V16.5A0.5,0.5 0 0 1 25.5,17H25.5A0.5,0.5 0 0 1 25,16.5V16Z"/><path d="M28.5,16H29V17H28.5A0.5,0.5 0 0 1 28,16.5V16.5A0.5,0.5 0 0 1 28.5,16Z"/><path d="M29,16H30V16.5A0.5,0.5 0 0 1 29.5,17H29V16Z"/><path d="M31.5,16H32V17H31V16.5A0.5,0.5 0 0 1 31.5,16Z"/><path d="M32,16H32.5A0.5,0.5 0 0 1 33,16.5V16.5A0.5,0.5 0 0 1 32.5,17H32V16Z"/><path d="M36.5,16H36.5A0.5,0.5 0 0 1 37,16.5V17H36V16.5A0.5,0.5 0 0 1 36.5,16Z"/><path d="M7,17H8V18H7V17Z"/><path d="M9.5,17H9.5A0.5,0.5 0 0 1 10,17.5V18H9V17.5A0.5,0.5 0 0 1 9.5,17Z"/><path d="M13.5,17H14V18H13V17.5A0.5,0.5 0 0 1 13.5,17Z"/><path d="M14,17H15V17.5A0.5,0.5 0 0 1 14.5,18H14V17Z"/><path d="M27.5,17H27.5A0.5,0.5 0 0 1 28,17.5V17.5A0.5,0.5 0 0 1 27.5,18H27.5A0.5,0.5 0 0 1 27,17.5V17.5A0.5,0.5 0 0 1 27.5,17Z"/><path d="M30.5,17H31V18H30.5A0.5,0.5 0 0 1 30,17.5V17.5A0.5,0.5 0 0 1 30.5,17Z"/><path d="M31,17H32V17.5A0.5,0.5 0 0 1 31.5,18H31V17Z"/><path d="M34.5,17H34.5A0.5,0.5 0 0 1 35,17.5V17.5A0.5,0.5 0 0 1 34.5,18H34.5A0.5,0.5 0 0 1 34,17.5V17.5A0.5,0.5 0 0 1 34.5,17Z"/><path d="M36,17H37V17.5A0.5,0.5 0 0 1 36.5,18H36.5A0.5,0.5 0 0 1 36,17.5V17Z"/><path d="M4.5,18H5V19H4.5A0.5,0.5 0 0 1 4,18.5V18.5A0.5,0.5 0 0 1 4.5,18Z"/><path d="M5,18H5.5A0.5,0.5 0 0 1 6,18.5V19H5V18Z"/><path d="M7,18H8V19H7.5A0.5,0.5 0 0 1 7,18.5V18Z"/><path d="M8,18H9V19H8V18Z"/><path d="M9,18H10V19H9V18Z"/><path d="M10,18H10.5A0.5,0.5 0 0 1 11,18.5V18.5A0.5,0.5 0 0 1 10.5,19H10V18Z"/><path d="M12.5,18H13V19H12V18.5A0.5,0.5 0 0 1 12.5,18Z"/><path d="M13,18H14V19H13V18Z"/><path d="M26.5,18H26.5A0.5,0.5 0 0 1 27,18.5V19H26V18.5A0.5,0.5 0 0 1 26.5,18Z"/><path d="M29.5,18H29.5A0.5,0.5 0 0 1 30,18.5V19H29V18.5A0.5,0.5 0 0 1 29.5,18Z"/><path d="M33.5,18H33.5A0.5,0.5 0 0 1 34,18.5V19H33V18.5A0.5,0.5 0 0 1 33.5,18Z"/><path d="M35.5,18H35.5A0.5,0.5 0 0 1 36,18.5V19H35V18.5A0.5,0.5 0 0 1 35.5,18Z"/><path d="M5,19H6V20H5V19Z"/><path d="M8,19H9V20H8V19Z"/><path d="M11.5,19H12V20H11V19.5A0.5,0.5 0 0 1 11.5,19Z"/><path d="M12,19H13V20H12V19Z"/><path d="M13,19H14V20H13V19Z"/><path d="M14,19H14.5A0.5,0.5 0 0 1 15,19.5V20H14V19Z"/><path d="M25.5,19H26V20H25.5A0.5,0.5 0 0 1 25,19.5V19.5A0.5,0.5 0 0 1 25.5,19Z"/><path d="M26,19H27V19.5A0.5,0.5 0 0 1 26.5,20H26V19Z"/><path d="M29,19H30V20H29V19Z"/><path d="M32.5,19H33V20H32V19.5A0.5,0.5 0 0 1 32.5,19Z"/><path d="M33,19H34V20H33V19Z"/><path d="M34,19H35V20H34V19Z"/><path d="M35,19H36V19.5A0.5,0.5 0 0 1 35.5,20H35V19Z"/><path d="M4.5,20H5V21H4.5A0.5,0.5 0 0 1 4,20.5V20.5A0.5,0.5 0 0 1 4.5,20Z"/><path d="M5,20H6V20.5A0.5,0.5 0 0 1 5.5,21H5V20Z"/><path d="M8,20H9V21H8V20Z"/><path d="M9,20H10V21H9V20Z"/><path d="M10,20H11V21H10V20Z"/><path d="M11,20H12V21H11V20Z"/><path d="M12,20H13V20.5A0.5,0.5 0 0 1 12.5,21H12V20Z"/><path d="M14,20H15V21H14.5A0.5,0.5 0 0 1 14,20.5V20Z"/><path d="M15,20H15.5A0.5,0.5 0 0 1 16,20.5V20.5A0.5,0.5 0 0 1 15.5,21H15V20Z"/><path d="M27.5,20H27.5A0.5,0.5 0 0 1 28,20.5V21H27V20.5A0.5,0.5 0 0 1 27.5,20Z"/><path d="M29,20H30V20.5A0.5,0.5 0 0 1 29.5,21H29.5A0.5,0.5 0 0 1 29,20.5V20Z"/><path d="M31.5,20H32V21H31.5A0.5,0.5 0 0 1 31,20.5V20.5A0.5,0.5 0 0 1 31.5,20Z"/><path d="M32,20H33V20.5A0.5,0.5 0 0 1 32.5,21H32V20Z"/><path d="M6.5,21H6.5A0.5,0.5 0 0 1 7,21.5V21.5A0.5,0.5 0 0 1 6.5,22H6.5A0.5,0.5 0 0 1 6,21.5V21.5A0.5,0.5 0 0 1 6.5,21Z"/><path d="M8,21H9V22H8V21Z"/><path d="M9,21H10V21.5A0.5,0.5 0 0 1 9.5,22H9V21Z"/><path d="M11,21H12V22H11V21Z"/><path d="M27,21H28V22H27.5A0.5,0.5 0 0 1 27,21.5V21Z"/><path d="M28,21H28.5A0.5,0.5 0 0 1 29,21.5V21.5A0.5,0.5 0 0 1 28.5,22H28V21Z"/><path d="M30.5,21H30.5A0.5,0.5 0 0 1 31,21.5V22H30V21.5A0.5,0.5 0 0 1 30.5,21Z"/><path d="M36.5,21H36.5A0.5,0.5 0 0 1 37,21.5V21.5A0.5,0.5 0 0 1 36.5,22H36.5A0.5,0.5 0 0 1 36,21.5V21.5A0.5,0.5 0 0 1 36.5,21Z"/><path d="M4.5,22H5V23H4V22.5A0.5,0.5 0 0 1 4.5,22Z"/><path d="M5,22H5.5A0.5,0.5 0 0 1 6,22.5V23H5V22Z"/><path d="M7.5,22H8V23H7V22.5A0.5,0.5 0 0 1 7.5,22Z"/><path d="M8,22H9V23H8V22Z"/><path d="M10.5,22H11V23H10.5A0.5,0.5 0 0 1 10,22.5V22.5A0.5,0.5 0 0 1 10.5,22Z"/><path d="M11,22H12V23H11V22Z"/><path d="M12,22H12.5A0.5,0.5 0 0 1 13,22.5V22.5A0.5,0.5 0 0 1 12.5,23H12V22Z"/><path d="M14.5,22H14.5A0.5,0.5 0 0 1 15,22.5V22.5A0.5,0.5 0 0 1 14.5,23H14.5A0.5,0.5 0 0 1 14,22.5V22.5A0.5,0.5 0 0 1 14.5,22Z"/><path d="M16.5,22H16.5A0.5,0.5 0 0 1 17,22.5V23H16V22.5A0.5,0.5 0 0 1 16.5,22Z"/><path d="M25.5,22H26V23H25V22.5A0.5,0.5 0 0 1 25.5,22Z"/><path d="M26,22H26.5A0.5,0.5 0 0 1 27,22.5V23H26V22Z"/><path d="M29.5,22H30V23H29V22.5A0.5,0.5 0 0 1 29.5,22Z"/><path d="M30,22H31V23H30V22Z"/><path d="M31,22H32V23H31V22Z"/><path d="M32,22H32.5A0.5,0.5 0 0 1 33,22.5V22.5A0.5,0.5 0 0 1 32.5,23H32V22Z"/><path d="M34.5,22H35V23H34V22.5A0.5,0.5 0 0 1 34.5,22Z"/><path d="M35,22H35.5A0.5,0.5 0 0 1 36,22.5V22.5A0.5,0.5 0 0 1 35.5,23H35V22Z"/><path d="M4,23H5V24H4V23Z"/><path d="M5,23H6V24H5V23Z"/><path d="M6,23H7V24H6V23Z"/><path d="M7,23H8V24H7V23Z"/><path d="M8,23H9V24H8V23Z"/><path d="M9,23H9.5A0.5,0.5 0 0 1 10,23.5V23.5A0.5,0.5 0 0 1 9.5,24H9V23Z"/><path d="M16,23H17V24H16V23Z"/><path d="M25,23H26V24H25.5A0.5,0.5 0 0 1 25,23.5V23Z"/><path d="M26,23H27V24H26V23Z"/><path d="M27,23H28V24H27V23Z"/><path d="M28,23H29V24H28V23Z"/><path d="M29,23H30V24H29V23Z"/><path d="M30,23H31V24H30V23Z"/><path d="M31,23H32V24H31V23Z"/><path d="M33.5,23H34V24H33V23.5A0.5,0.5 0 0 1 33.5,23Z"/><path d="M34,23H35V23.5A0.5,0.5 0 0 1 34.5,24H34V23Z"/><path d="M36.5,23H36.5A0.5,0.5 0 0 1 37,23.5V24H36V23.5A0.5,0.5 0 0 1 36.5,23Z"/><path d="M4,24H5V25H4V24Z"/><path d="M6,24H7V25H6V24Z"/><path d="M8,24H9V24.5A0.5,0.5 0 0 1 8.5,25H8.5A0.5,0.5 0 0 1 8,24.5V24Z"/><path d="M10.5,24H10.5A0.5,0.5 0 0 1 11,24.5V24.5A0.5,0.5 0 0 1 10.5,25H10.5A0.5,0.5 0 0 1 10,24.5V24.5A0.5,0.5 0 0 1 10.5,24Z"/><path d="M13.5,24H13.5A0.5,0.5 0 0 1 14,24.5V25H13V24.5A0.5,0.5 0 0 1 13.5,24Z"/><path d="M15.5,24H16V25H15V24.5A0.5,0.5 0 0 1 15.5,24Z"/><path d="M16,24H17V25H16V24Z"/><path d="M28,24H29V25H28.5A0.5,0.5 0 0 1 28,24.5V24Z"/><path d="M29,24H30V25H29V24Z"/><path d="M31,24H32V25H31.5A0.5,0.5 0 0 1 31,24.5V24Z"/><path d="M32,24H33V25H32V24Z"/><path d="M33,24H34V24.5A0.5,0.5 0 0 1 33.5,25H33V24Z"/><path d="M35.5,24H36V25H35.5A0.5,0.5 0 0 1 35,24.5V24.5A0.5,0.5 0 0 1 35.5,24Z"/><path d="M36,24H37V25H36V24Z"/><path d="M4,25H5V26H4V25Z"/><path d="M6,25H7V25.5A0.5,0.5 0 0 1 6.5,26H6.5A0.5,0.5 0 0 1 6,25.5V25Z"/><path d="M12.5,25H13V26H12V25.5A0.5,0.5 0 0 1 12.5,25Z"/><path d="M13,25H14V26H13V25Z"/><path d="M14,25H15V26H14V25Z"/><path d="M15,25H16V26H15V25Z"/><path d="M16,25H17V26H16V25Z"/><path d="M17,25H18V26H17V25Z"/><path d="M18,25H18.5A0.5,0.5 0 0 1 19,25.5V26H18V25Z"/><path d="M20.5,25H20.5A0.5,0.5 0 0 1 21,25.5V26H20V25.5A0.5,0.5 0 0 1 20.5,25Z"/><path d="M22.5,25H22.5A0.5,0.5 0 0 1 23,25.5V25.5A0.5,0.5 0 0 1 22.5,26H22.5A0.5,0.5 0 0 1 22,25.5V25.5A0.5,0.5 0 0 1 22.5,25Z"/><path d="M25.5,25H25.5A0.5,0.5 0 0 1 26,25.5V25.5A0.5,0.5 0 0 1 25.5,26H25.5A0.5,0.5 0 0 1 25,25.5V25.5A0.5,0.5 0 0 1 25.5,25Z"/><path d="M27.5,25H27.5A0.5,0.5 0 0 1 28,25.5V25.5A0.5,0.5 0 0 1 27.5,26H27.5A0.5,0.5 0 0 1 27,25.5V25.5A0.5,0.5 0 0 1 27.5,25Z"/><path d="M29,25H30V26H29.5A0.5,0.5 0 0 1 29,25.5V25Z"/><path d="M30,25H30.5A0.5,0.5 0 0 1 31,25.5V25.5A0.5,0.5 0 0 1 30.5,26H30V25Z"/><path d="M34.5,25H34.5A0.5,0.5 0 0 1 35,25.5V26H34V25.5A0.5,0.5 0 0 1 34.5,25Z"/><path d="M36,25H37V25.5A0.5,0.5 0 0 1 36.5,26H36.5A0.5,0.5 0 0 1 36,25.5V25Z"/><path d="M4,26H5V27H4V26Z"/><path d="M9.5,26H10V27H9.5A0.5,0.5 0 0 1 9,26.5V26.5A0.5,0.5 0 0 1 9.5,26Z"/><path d="M10,26H10.5A0.5,0.5 0 0 1 11,26.5V26.5A0.5,0.5 0 0 1 10.5,27H10V26Z"/><path d="M12,26H13V26.5A0.5,0.5 0 0 1 12.5,27H12.5A0.5,0.5 0 0 1 12,26.5V26Z"/><path d="M18,26H19V27H18V26Z"/><path d="M20,26H21V27H20V26Z"/><path d="M24.5,26H24.5A0.5,0.5 0 0 1 25,26.5V27H24V26.5A0.5,0.5 0 0 1 24.5,26Z"/><path d="M32.5,26H33V27H32V26.5A0.5,0.5 0 0 1 32.5,26Z"/><path d="M33,26H34V27H33V26Z"/><path d="M34,26H35V27H34V26Z"/><path d="M35,26H35.5A0.5,0.5 0 0 1 36,26.5V26.5A0.5,0.5 0 0 1 35.5,27H35V26Z"/><path d="M4,27H5V28H4V27Z"/><path d="M7.5,27H8V28H7V27.5A0.5,0.5 0 0 1 7.5,27Z"/><path d="M8,27H8.5A0.5,0.5 0 0 1 9,27.5V27.5A0.5,0.5 0 0 1 8.5,28H8V27Z"/><path d="M11.5,27H11.5A0.5,0.5 0 0 1 12,27.5V28H11V27.5A0.5,0.5 0 0 1 11.5,27Z"/><path d="M13.5,27H13.5A0.5,0.5 0 0 1 14,27.5V27.5A0.5,0.5 0 0 1 13.5,28H13.5A0.5,0.5 0 0 1 13,27.5V27.5A0.5,0.5 0 0 1 13.5,27Z"/><path d="M15.5,27H16V28H15V27.5A0.5,0.5 0 0 1 15.5,27Z"/><path d="M16,27H17V28H16V27Z"/><path d="M17,27H18V28H17V27Z"/><path d="M18,27H19V28H18V27Z"/><path d="M19,27H20V28H19V27Z"/><path d="M20,27H21V28H20V27Z"/><path d="M21,27H22V28H21V27Z"/><path d="M22,27H22.5A0.5,0.5 0 0 1 23,27.5V27.5A0.5,0.5 0 0 1 22.5,28H22V27Z"/><path d="M24,27H25V28H24.5A0.5,0.5 0 0 1 24,27.5V27Z"/><path d="M25,27H25.5A0.5,0.5 0 0 1 26,27.5V27.5A0.5,0.5 0 0 1 25.5,28H25V27Z"/><path d="M27.5,27H27.5A0.5,0.5 0 0 1 28,27.5V27.5A0.5,0.5 0 0 1 27.5,28H27.5A0.5,0.5 0 0 1 27,27.5V27.5A0.5,0.5 0 0 1 27.5,27Z"/><path d="M31.5,27H32V28H31V27.5A0.5,0.5 0 0 1 31.5,27Z"/><path d="M32,27H33V28H32V27Z"/><path d="M33,27H34V28H33V27Z"/><path d="M34,27H35V27.5A0.5,0.5 0 0 1 34.5,28H34V27Z"/><path d="M36.5,27H36.5A0.5,0.5 0 0 1 37,27.5V28H36V27.5A0.5,0.5 0 0 1 36.5,27Z"/><path d="M4,28H5V28.5A0.5,0.5 0 0 1 4.5,29H4.5A0.5,0.5 0 0 1 4,28.5V28Z"/><path d="M6.5,28H7V29H6.5A0.5,0.5 0 0 1 6,28.5V28.5A0.5,0.5 0 0 1 6.5,28Z"/><path d="M7,28H8V28.5A0.5,0.5 0 0 1 7.5,29H7V28Z"/><path d="M10.5,28H11V29H10.5A0.5,0.5 0 0 1 10,28.5V28.5A0.5,0.5 0 0 1 10.5,28Z"/><path d="M11,28H12V29H11V28Z"/><path d="M12,28H12.5A0.5,0.5 0 0 1 13,28.5V29H12V28Z"/><path d="M14.5,28H15V29H14.5A0.5,0.5 0 0 1 14,28.5V28.5A0.5,0.5 0 0 1 14.5,28Z"/><path d="M15,28H16V28.5A0.5,0.5 0 0 1 15.5,29H15V28Z"/><path d="M18,28H19V29H18V28Z"/><path d="M19,28H20V28.5A0.5,0.5 0 0 1 19.5,29H19V28Z"/><path d="M28.5,28H29V29H28V28.5A0.5,0.5 0 0 1 28.5,28Z"/><path d="M29,28H30V29H29V28Z"/><path d="M30,28H31V29H30V28Z"/><path d="M31,28H32V29H31V28Z"/><path d="M32,28H33V29H32V28Z"/><path d="M35.5,28H36V29H35V28.5A0.5,0.5 0 0 1 35.5,28Z"/><path d="M36,28H37V29H36V28Z"/><path d="M12,29H13V30H12.5A0.5,0.5 0 0 1 12,29.5V29Z"/><path d="M13,29H13.5A0.5,0.5 0 0 1 14,29.5V30H13V29Z"/><path d="M18,29H19V29.5A0.5,0.5 0 0 1 18.5,30H18.5A0.5,0.5 0 0 1 18,29.5V29Z"/><path d="M20.5,29H21V30H20.5A0.5,0.5 0 0 1 20,29.5V29.5A0.5,0.5 0 0 1 20.5,29Z"/><path d="M21,29H21.5A0.5,0.5 0 0 1 22,29.5V30H21V29Z"/><path d="M28,29H29V30H28V29Z"/><path d="M32,29H33V30H32V29Z"/><path d="M33,29H33.5A0.5,0.5 0 0 1 34,29.5V29.5A0.5,0.5 0 0 1 33.5,30H33V29Z"/><path d="M35,29H36V30H35V29Z"/><path d="M36,29H37V29.5A0.5,0.5 0 0 1 36.5,30H36V29Z"/><path d="M13,30H14V31H13V30Z"/><path d="M14,30H14.5A0.5,0.5 0 0 1 15,30.5V31H14V30Z"/><path d="M16.5,30H17V31H16.5A0.5,0.5 0 0 1 16,30.5V30.5A0.5,0.5 0 0 1 16.5,30Z"/><path d="M17,30H17.5A0.5,0.5 0 0 1 18,30.5V31H17V30Z"/><path d="M21,30H22V31H21V30Z"/><path d="M22,30H23V31H22V30Z"/><path d="M23,30H24V31H23V30Z"/><path d="M24,30H24.5A0.5,0.5 0 0 1 25,30.5V31H24V30Z"/><path d="M26.5,30H27V31H26.5A0.5,0.5 0 0 1 26,30.5V30.5A0.5,0.5 0 0 1 26.5,30Z"/><path d="M27,30H28V31H27V30Z"/><path d="M28,30H29V31H28V30Z"/><path d="M30.5,30H30.5A0.5,0.5 0 0 1 31,30.5V30.5A0.5,0.5 0 0 1 30.5,31H30.5A0.5,0.5 0 0 1 30,30.5V30.5A0.5,0.5 0 0 1 30.5,30Z"/><path d="M32,30H33V31H32V30Z"/><path d="M35,30H36V31H35V30Z"/><path d="M13,31H14V32H13.5A0.5,0.5 0 0 1 13,31.5V31Z"/><path d="M14,31H15V31.5A0.5,0.5 0 0 1 14.5,32H14V31Z"/><path d="M17,31H18V31.5A0.5,0.5 0 0 1 17.5,32H17.5A0.5,0.5 0 0 1 17,31.5V31Z"/><path d="M21,31H22V32H21V31Z"/><path d="M24,31H25V31.5A0.5,0.5 0 0 1 24.5,32H24.5A0.5,0.5 0 0 1 24,31.5V31Z"/><path d="M27,31H28V32H27.5A0.5,0.5 0 0 1 27,31.5V31Z"/><path d="M28,31H29V32H28V31Z"/><path d="M32,31H33V32H32V31Z"/><path d="M33,31H34V32H33V31Z"/><path d="M34,31H35V32H34V31Z"/><path d="M35,31H36V32H35V31Z"/><path d="M36,31H36.5A0.5,0.5 0 0 1 37,31.5V32H36V31Z"/><path d="M12.5,32H12.5A0.5,0.5 0 0 1 13,32.5V33H12V32.5A0.5,0.5 0 0 1 12.5,32Z"/><path d="M15.5,32H15.5A0.5,0.5 0 0 1 16,32.5V33H15V32.5A0.5,0.5 0 0 1 15.5,32Z"/><path d="M21,32H22V33H21.5A0.5,0.5 0 0 1 21,32.5V32Z"/><path d="M22,32H22.5A0.5,0.5 0 0 1 23,32.5V32.5A0.5,0.5 0 0 1 22.5,33H22V32Z"/><path d="M25.5,32H26V33H25V32.5A0.5,0.5 0 0 1 25.5,32Z"/><path d="M26,32H26.5A0.5,0.5 0 0 1 27,32.5V32.5A0.5,0.5 0 0 1 26.5,33H26V32Z"/><path d="M28,32H29V33H28.5A0.5,0.5 0 0 1 28,32.5V32Z"/><path d="M29,32H30V33H29V32Z"/><path d="M30,32H31V33H30V32Z"/><path d="M31,32H32V33H31V32Z"/><path d="M32,32H33V33H32V32Z"/><path d="M33,32H34V33H33V32Z"/><path d="M35,32H36V33H35.5A0.5,0.5 0 0 1 35,32.5V32Z"/><path d="M36,32H37V33H36V32Z"/><path d="M12,33H13V34H12V33Z"/><path d="M13,33H13.5A0.5,0.5 0 0 1 14,33.5V34H13V33Z"/><path d="M15,33H16V33.5A0.5,0.5 0 0 1 15.5,34H15.5A0.5,0.5 0 0 1 15,33.5V33Z"/><path d="M18.5,33H18.5A0.5,0.5 0 0 1 19,33.5V34H18V33.5A0.5,0.5 0 0 1 18.5,33Z"/><path d="M20.5,33H20.5A0.5,0.5 0 0 1 21,33.5V33.5A0.5,0.5 0 0 1 20.5,34H20.5A0.5,0.5 0 0 1 20,33.5V33.5A0.5,0.5 0 0 1 20.5,33Z"/><path d="M24.5,33H25V34H24.5A0.5,0.5 0 0 1 24,33.5V33.5A0.5,0.5 0 0 1 24.5,33Z"/><path d="M25,33H26V34H25V33Z"/><path d="M29,33H30V34H29V33Z"/><path d="M32,33H33V34H32.5A0.5,0.5 0 0 1 32,33.5V33Z"/><path d="M33,33H34V34H33V33Z"/><path d="M36,33H37V33.5A0.5,0.5 0 0 1 36.5,34H36.5A0.5,0.5 0 0 1 36,33.5V33Z"/><path d="M12,34H13V35H12.5A0.5,0.5 0 0 1 12,34.5V34Z"/><path d="M13,34H14V35H13V34Z"/><path d="M14,34H14.5A0.5,0.5 0 0 1 15,34.5V35H14V34Z"/><path d="M18,34H19V35H18V34Z"/><path d="M19,34H19.5A0.5,0.5 0 0 1 20,34.5V35H19V34Z"/><path d="M22.5,34H22.5A0.5,0.5 0 0 1 23,34.5V35H22V34.5A0.5,0.5 0 0 1 22.5,34Z"/><path d="M25,34H26V35H25.5A0.5,0.5 0 0 1 25,34.5V34Z"/><path d="M26,34H27V35H26V34Z"/><path d="M27,34H27.5A0.5,0.5 0 0 1 28,34.5V34.5A0.5,0.5 0 0 1 27.5,35H27V34Z"/><path d="M29,34H30V35H29V34Z"/><path d="M30,34H30.5A0.5,0.5 0 0 1 31,34.5V35H30V34Z"/><path d="M33,34H34V35H33V34Z"/><path d="M13,35H14V36H13V35Z"/><path d="M14,35H15V36H14V35Z"/><path d="M15,35H15.5A0.5,0.5 0 0 1 16,35.5V35.5A0.5,0.5 0 0 1 15.5,36H15V35Z"/><path d="M17.5,35H18V36H17.5A0.5,0.5 0 0 1 17,35.5V35.5A0.5,0.5 0 0 1 17.5,35Z"/><path d="M18,35H19V36H18V35Z"/><path d="M19,35H20V36H19V35Z"/><path d="M20,35H21V36H20V35Z"/><path d="M21,35H22V36H21V35Z"/><path d="M22,35H23V35.5A0.5,0.5 0 0 1 22.5,36H22V35Z"/><path d="M29,35H30V36H29V35Z"/><path d="M30,35H31V36H30V35Z"/><path d="M31,35H31.5A0.5,0.5 0 0 1 32,35.5V35.5A0.5,0.5 0 0 1 31.5,36H31V35Z"/><path d="M33,35H34V36H33.5A0.5,0.5 0 0 1 33,35.5V35Z"/><path d="M34,35H34.5A0.5,0.5 0 0 1 35,35.5V35.5A0.5,0.5 0 0 1 34.5,36H34V35Z"/><path d="M13,36H14V36.5A0.5,0.5 0 0 1 13.5,37H13.5A0.5,0.5 0 0 1 13,36.5V36Z"/><path d="M18,36H19V37H18.5A0.5,0.5 0 0 1 18,36.5V36Z"/><path d="M19,36H20V36.5A0.5,0.5 0 0 1 19.5,37H19V36Z"/><path d="M21,36H22V36.5A0.5,0.5 0 0 1 21.5,37H21.5A0.5,0.5 0 0 1 21,36.5V36Z"/><path d="M24.5,36H24.5A0.5,0.5 0 0 1 25,36.5V36.5A0.5,0.5 0 0 1 24.5,37H24.5A0.5,0.5 0 0 1 24,36.5V36.5A0.5,0.5 0 0 1 24.5,36Z"/><path d="M27.5,36H28V37H27.5A0.5,0.5 0 0 1 27,36.5V36.5A0.5,0.5 0 0 1 27.5,36Z"/><path d="M28,36H29V37H28V36Z"/><path d="M29,36H30V37H29V36Z"/><path d="M30,36H31V36.5A0.5,0.5 0 0 1 30.5,37H30V36Z"/><path d="M35.5,36H35.5A0.5,0.5 0 0 1 36,36.5V36.5A0.5,0.5 0 0 1 35.5,37H35.5A0.5,0.5 0 0 1 35,36.5V36.5A0.5,0.5 0 0 1 35.5,36Z"/></g><path fill="#1C2A21" fill-rule="evenodd" d="M5.6,4h3.8a1.6,1.6 0 0 1 1.6,1.6v3.8a1.6,1.6 0 0 1-1.6,1.6h-3.8a1.6,1.6 0 0 1-1.6-1.6v-3.8a1.6,1.6 0 0 1 1.6-1.6zM5.9,5h3.2a0.9,0.9 0 0 1 0.9,0.9v3.2a0.9,0.9 0 0 1-0.9,0.9h-3.2a0.9,0.9 0 0 1-0.9-0.9v-3.2a0.9,0.9 0 0 1 0.9-0.9z"/><rect x="6" y="6" width="3" height="3" rx="0.7" fill="#B4441F"/><path fill="#1C2A21" fill-rule="evenodd" d="M31.6,4h3.8a1.6,1.6 0 0 1 1.6,1.6v3.8a1.6,1.6 0 0 1-1.6,1.6h-3.8a1.6,1.6 0 0 1-1.6-1.6v-3.8a1.6,1.6 0 0 1 1.6-1.6zM31.9,5h3.2a0.9,0.9 0 0 1 0.9,0.9v3.2a0.9,0.9 0 0 1-0.9,0.9h-3.2a0.9,0.9 0 0 1-0.9-0.9v-3.2a0.9,0.9 0 0 1 0.9-0.9z"/><rect x="32" y="6" width="3" height="3" rx="0.7" fill="#B4441F"/><path fill="#1C2A21" fill-rule="evenodd" d="M5.6,30h3.8a1.6,1.6 0 0 1 1.6,1.6v3.8a1.6,1.6 0 0 1-1.6,1.6h-3.8a1.6,1.6 0 0 1-1.6-1.6v-3.8a1.6,1.6 0 0 1 1.6-1.6zM5.9,31h3.2a0.9,0.9 0 0 1 0.9,0.9v3.2a0.9,0.9 0 0 1-0.9,0.9h-3.2a0.9,0.9 0 0 1-0.9-0.9v-3.2a0.9,0.9 0 0 1 0.9-0.9z"/><rect x="6" y="32" width="3" height="3" rx="0.7" fill="#B4441F"/><rect x="16.65" y="16.65" width="7.7" height="7.7" rx="0.9" fill="#FFFFFF"/><svg x="17.3" y="17.3" width="6.4" height="6.4" viewBox="0 0 64 64">
  <rect width="64" height="64" rx="6" fill="#1C2A21"/>
  <path d="M14 44 L22 18 L46 14 L52 40 Z" fill="none" stroke="#F4ECDD" stroke-width="3.5" stroke-linejoin="round"/>
  <path d="M8 52 H56" stroke="#C98A1B" stroke-width="3" stroke-dasharray="4 3"/>
  <circle cx="22" cy="18" r="4.5" fill="#B4441F"/>
  <circle cx="46" cy="14" r="4.5" fill="#B4441F"/>
  <circle cx="52" cy="40" r="4.5" fill="#B4441F"/>
  <circle cx="14" cy="44" r="4.5" fill="#B4441F"/>

</svg></svg>